<?xml version='1.0' encoding='UTF-8' standalone='no'?>
<svg xmlns="http://www.w3.org/2000/svg" viewBox="0 0 1438 723" xmlns:xlink="http://www.w3.org/1999/xlink" height="723pt" width="1438pt">
 <title>Figure 1</title>
 <desc>
Creator: GL2PS 1.4.2, (C) 1999-2020 C. Geuzaine
For: Octave
CreationDate: Sat Mar  4 18:57:47 2023
</desc>
 <defs/>
 <polygon points="0,0 1438,0 1438,723 0,723" fill="#ffffff"/>
 <g>
  <polygon shape-rendering="crispEdges" points="0,723 1438,723 1438,0 0,0" fill="#ffffff"/>
  <clipPath id="cp001438723">
   <polygon points="0,723 1438,723 1438,0 0,0"/>
  </clipPath>
  <g clip-path="url(#cp001438723)">
   <polygon shape-rendering="crispEdges" points="186.954,643.958 1301.49,643.958 1301.49,54.2661 186.954,54.2661" fill="#ffffff"/>
   <polyline stroke-width="0.5" stroke-opacity="0.15" stroke-dasharray="16,0" stroke="#262626" stroke-linecap="butt" points="186.954,643.958 186.954,54.2661" fill="none" stroke-linejoin="miter"/>
   <polyline stroke-width="0.5" stroke-opacity="0.15" stroke-dasharray="16,0" stroke="#262626" stroke-linecap="butt" points="372.709,643.958 372.709,54.2661" fill="none" stroke-linejoin="miter"/>
   <polyline stroke-width="0.5" stroke-opacity="0.15" stroke-dasharray="16,0" stroke="#262626" stroke-linecap="butt" points="558.465,643.958 558.465,54.2661" fill="none" stroke-linejoin="miter"/>
   <polyline stroke-width="0.5" stroke-opacity="0.15" stroke-dasharray="16,0" stroke="#262626" stroke-linecap="butt" points="744.221,643.958 744.221,54.2661" fill="none" stroke-linejoin="miter"/>
   <polyline stroke-width="0.5" stroke-opacity="0.15" stroke-dasharray="16,0" stroke="#262626" stroke-linecap="butt" points="929.977,643.958 929.977,54.2661" fill="none" stroke-linejoin="miter"/>
   <polyline stroke-width="0.5" stroke-opacity="0.15" stroke-dasharray="16,0" stroke="#262626" stroke-linecap="butt" points="1115.73,643.958 1115.73,54.2661" fill="none" stroke-linejoin="miter"/>
   <polyline stroke-width="0.5" stroke-opacity="0.15" stroke-dasharray="16,0" stroke="#262626" stroke-linecap="butt" points="1301.49,643.958 1301.49,54.2661" fill="none" stroke-linejoin="miter"/>
   <polyline stroke-width="0.5" stroke="#262626" stroke-linecap="butt" points="186.954,643.958 186.954,632.818" fill="none" stroke-linejoin="miter"/>
   <polyline stroke-width="0.5" stroke="#262626" stroke-linecap="butt" points="186.954,54.2661 186.954,65.4058" fill="none" stroke-linejoin="miter"/>
   <polyline stroke-width="0.5" stroke="#262626" stroke-linecap="butt" points="372.709,643.958 372.709,632.818" fill="none" stroke-linejoin="miter"/>
   <polyline stroke-width="0.5" stroke="#262626" stroke-linecap="butt" points="372.709,54.2661 372.709,65.4058" fill="none" stroke-linejoin="miter"/>
   <polyline stroke-width="0.5" stroke="#262626" stroke-linecap="butt" points="558.465,643.958 558.465,632.818" fill="none" stroke-linejoin="miter"/>
   <polyline stroke-width="0.5" stroke="#262626" stroke-linecap="butt" points="558.465,54.2661 558.465,65.4058" fill="none" stroke-linejoin="miter"/>
   <polyline stroke-width="0.5" stroke="#262626" stroke-linecap="butt" points="744.221,643.958 744.221,632.818" fill="none" stroke-linejoin="miter"/>
   <polyline stroke-width="0.5" stroke="#262626" stroke-linecap="butt" points="744.221,54.2661 744.221,65.4058" fill="none" stroke-linejoin="miter"/>
   <polyline stroke-width="0.5" stroke="#262626" stroke-linecap="butt" points="929.977,643.958 929.977,632.818" fill="none" stroke-linejoin="miter"/>
   <polyline stroke-width="0.5" stroke="#262626" stroke-linecap="butt" points="929.977,54.2661 929.977,65.4058" fill="none" stroke-linejoin="miter"/>
   <polyline stroke-width="0.5" stroke="#262626" stroke-linecap="butt" points="1115.73,643.958 1115.73,632.818" fill="none" stroke-linejoin="miter"/>
   <polyline stroke-width="0.5" stroke="#262626" stroke-linecap="butt" points="1115.73,54.2661 1115.73,65.4058" fill="none" stroke-linejoin="miter"/>
   <polyline stroke-width="0.5" stroke="#262626" stroke-linecap="butt" points="1301.49,643.958 1301.49,632.818" fill="none" stroke-linejoin="miter"/>
   <polyline stroke-width="0.5" stroke="#262626" stroke-linecap="butt" points="1301.49,54.2661 1301.49,65.4058" fill="none" stroke-linejoin="miter"/>
   <g font-style="normal" font-weight="normal" font-family="FreeSans" font-size="10" xml:space="preserve" transform="translate(183.954,659.454) rotate(-0,3,-8)">
    <text y="-0" x="0 " fill="rgb(38,38,38)">0</text>
   </g>
   <g font-style="normal" font-weight="normal" font-family="FreeSans" font-size="10" xml:space="preserve" transform="translate(366.71,659.454) rotate(-0,6,-8)">
    <text y="-0" x="0 6 " fill="rgb(38,38,38)">20</text>
   </g>
   <g font-style="normal" font-weight="normal" font-family="FreeSans" font-size="10" xml:space="preserve" transform="translate(552.465,659.454) rotate(-0,6,-8)">
    <text y="-0" x="0 6 " fill="rgb(38,38,38)">40</text>
   </g>
   <g font-style="normal" font-weight="normal" font-family="FreeSans" font-size="10" xml:space="preserve" transform="translate(738.221,659.454) rotate(-0,6,-8)">
    <text y="-0" x="0 6 " fill="rgb(38,38,38)">60</text>
   </g>
   <g font-style="normal" font-weight="normal" font-family="FreeSans" font-size="10" xml:space="preserve" transform="translate(923.976,659.454) rotate(-0,6,-8)">
    <text y="-0" x="0 6 " fill="rgb(38,38,38)">80</text>
   </g>
   <g font-style="normal" font-weight="normal" font-family="FreeSans" font-size="10" xml:space="preserve" transform="translate(1106.73,659.454) rotate(-0,9,-8)">
    <text y="-0" x="0 6 12 " fill="rgb(38,38,38)">100</text>
   </g>
   <g font-style="normal" font-weight="normal" font-family="FreeSans" font-size="10" xml:space="preserve" transform="translate(1292.49,659.454) rotate(-0,9,-8)">
    <text y="-0" x="0 6 12 " fill="rgb(38,38,38)">120</text>
   </g>
   <polyline stroke-width="0.5" stroke-opacity="0.15" stroke-dasharray="16,0" stroke="#262626" stroke-linecap="butt" points="186.954,643.958 1301.49,643.958" fill="none" stroke-linejoin="miter"/>
   <polyline stroke-width="0.5" stroke-opacity="0.15" stroke-dasharray="16,0" stroke="#262626" stroke-linecap="butt" points="186.954,526.02 1301.49,526.02" fill="none" stroke-linejoin="miter"/>
   <polyline stroke-width="0.5" stroke-opacity="0.15" stroke-dasharray="16,0" stroke="#262626" stroke-linecap="butt" points="186.954,408.081 1301.49,408.081" fill="none" stroke-linejoin="miter"/>
   <polyline stroke-width="0.5" stroke-opacity="0.15" stroke-dasharray="16,0" stroke="#262626" stroke-linecap="butt" points="186.954,290.143 1301.49,290.143" fill="none" stroke-linejoin="miter"/>
   <polyline stroke-width="0.5" stroke-opacity="0.15" stroke-dasharray="16,0" stroke="#262626" stroke-linecap="butt" points="186.954,172.205 1301.49,172.205" fill="none" stroke-linejoin="miter"/>
   <polyline stroke-width="0.5" stroke-opacity="0.15" stroke-dasharray="16,0" stroke="#262626" stroke-linecap="butt" points="186.954,54.2661 1301.49,54.2661" fill="none" stroke-linejoin="miter"/>
   <polyline stroke-width="0.5" stroke="#262626" stroke-linecap="butt" points="186.954,643.958 198.095,643.958" fill="none" stroke-linejoin="miter"/>
   <polyline stroke-width="0.5" stroke="#262626" stroke-linecap="butt" points="1301.49,643.958 1290.35,643.958" fill="none" stroke-linejoin="miter"/>
   <polyline stroke-width="0.5" stroke="#262626" stroke-linecap="butt" points="186.954,526.02 198.095,526.02" fill="none" stroke-linejoin="miter"/>
   <polyline stroke-width="0.5" stroke="#262626" stroke-linecap="butt" points="1301.49,526.02 1290.35,526.02" fill="none" stroke-linejoin="miter"/>
   <polyline stroke-width="0.5" stroke="#262626" stroke-linecap="butt" points="186.954,408.081 198.095,408.081" fill="none" stroke-linejoin="miter"/>
   <polyline stroke-width="0.5" stroke="#262626" stroke-linecap="butt" points="1301.49,408.081 1290.35,408.081" fill="none" stroke-linejoin="miter"/>
   <polyline stroke-width="0.5" stroke="#262626" stroke-linecap="butt" points="186.954,290.143 198.095,290.143" fill="none" stroke-linejoin="miter"/>
   <polyline stroke-width="0.5" stroke="#262626" stroke-linecap="butt" points="1301.49,290.143 1290.35,290.143" fill="none" stroke-linejoin="miter"/>
   <polyline stroke-width="0.5" stroke="#262626" stroke-linecap="butt" points="186.954,172.205 198.095,172.205" fill="none" stroke-linejoin="miter"/>
   <polyline stroke-width="0.5" stroke="#262626" stroke-linecap="butt" points="1301.49,172.205 1290.35,172.205" fill="none" stroke-linejoin="miter"/>
   <polyline stroke-width="0.5" stroke="#262626" stroke-linecap="butt" points="186.954,54.2661 198.095,54.2661" fill="none" stroke-linejoin="miter"/>
   <polyline stroke-width="0.5" stroke="#262626" stroke-linecap="butt" points="1301.49,54.2661 1290.35,54.2661" fill="none" stroke-linejoin="miter"/>
   <g font-style="normal" font-weight="normal" font-family="FreeSans" font-size="10" xml:space="preserve" transform="translate(175.956,647.958) rotate(-0,6,-4)">
    <text y="-0" x="0 " fill="rgb(38,38,38)">0</text>
   </g>
   <g font-style="normal" font-weight="normal" font-family="FreeSans" font-size="10" xml:space="preserve" transform="translate(157.956,530.019) rotate(-0,24,-4)">
    <text y="-0" x="0 6 12 18 " fill="rgb(38,38,38)">2000</text>
   </g>
   <g font-style="normal" font-weight="normal" font-family="FreeSans" font-size="10" xml:space="preserve" transform="translate(157.956,412.081) rotate(-0,24,-4)">
    <text y="-0" x="0 6 12 18 " fill="rgb(38,38,38)">4000</text>
   </g>
   <g font-style="normal" font-weight="normal" font-family="FreeSans" font-size="10" xml:space="preserve" transform="translate(157.956,294.143) rotate(-0,24,-4)">
    <text y="-0" x="0 6 12 18 " fill="rgb(38,38,38)">6000</text>
   </g>
   <g font-style="normal" font-weight="normal" font-family="FreeSans" font-size="10" xml:space="preserve" transform="translate(157.956,176.204) rotate(-0,24,-4)">
    <text y="-0" x="0 6 12 18 " fill="rgb(38,38,38)">8000</text>
   </g>
   <g font-style="normal" font-weight="normal" font-family="FreeSans" font-size="10" xml:space="preserve" transform="translate(151.956,58.2661) rotate(-0,30,-4)">
    <text y="-0" x="0 6 12 18 24 " fill="rgb(38,38,38)">10000</text>
   </g>
   <polyline stroke-width="0.5" stroke-dasharray="16,0" stroke="#262626" stroke-linecap="square" points="186.954,643.958 1301.49,643.958" fill="none" stroke-linejoin="miter"/>
   <polyline stroke-width="0.5" stroke-dasharray="16,0" stroke="#262626" stroke-linecap="square" points="186.954,54.2661 1301.49,54.2661" fill="none" stroke-linejoin="miter"/>
   <polyline stroke-width="0.5" stroke-dasharray="16,0" stroke="#262626" stroke-linecap="square" points="186.954,643.958 186.954,54.2661" fill="none" stroke-linejoin="miter"/>
   <polyline stroke-width="0.5" stroke-dasharray="16,0" stroke="#262626" stroke-linecap="square" points="1301.49,643.958 1301.49,54.2661" fill="none" stroke-linejoin="miter"/>
   <g font-style="normal" font-weight="normal" font-family="FreeSans" font-size="11" xml:space="preserve" transform="translate(741.221,671.454) rotate(-0,3,-7)">
    <text y="-0" x="0 " fill="rgb(38,38,38)">n</text>
   </g>
   <g font-style="normal" font-weight="normal" font-family="FreeSans" font-size="11" xml:space="preserve" transform="translate(136.956,349.112) rotate(-90,10,0)">
    <text y="-3" x="0 6 10 16 " fill="rgb(38,38,38)">a(n)</text>
   </g>
   <g font-style="normal" font-weight="bold" font-family="FreeSans" font-size="10" xml:space="preserve" transform="translate(699.221,44.2661) rotate(-0,45,0)">
    <text y="-32" x="2 9 15 18 21 27 32 35 42 48 54 57 63 69 72 78 82 " fill="rgb(0,0,0)">Collaz Conjecture</text>
    <text y="-17" x="4 11 14 20 26 32 35 41 47 50 53 56 65 71 74 80 " fill="rgb(0,0,0)">Stopping time:96</text>
    <text y="-2" font-family="*, FreeSans" x="0 3 9 12 18 21 24 30 33 39 45 48 51 54 63 69 72 78 84 " fill="rgb(0,0,0)">total stop time:111</text>
   </g>
   <polyline stroke-width="0.5" stroke="#000000" stroke-linecap="butt" points="186.954,642.366 196.242,639.122 205.529,641.54 214.817,636.646 224.105,640.302 233.393,642.13 242.681,638.415 251.968,641.186 261.256,635.584 270.544,639.771 279.832,631.338 289.12,637.648 298.407,624.97 307.695,634.464 316.983,615.417 326.271,629.687 335.559,636.822 344.846,622.493 354.134,633.225 363.422,638.591 372.709,627.8 381.998,635.879 391.285,619.663 400.573,631.81 409.861,637.884 419.148,625.677 428.437,634.817 437.724,616.478 447.012,630.218 456.3,602.679 465.587,623.318 474.875,633.638 484.163,612.94 493.451,628.449 502.738,597.372 512.026,620.665 521.314,574.021 530.602,608.989 539.89,538.993 549.177,591.475 558.465,617.716 567.753,565.175 577.041,604.566 586.329,624.262 595.616,634.11 604.904,614.355 614.192,629.156 623.479,599.495 632.768,621.727 642.055,577.205 651.343,610.581 660.631,627.27 669.918,593.834 679.207,618.896 688.494,568.713 697.782,606.335 707.07,625.146 716.357,587.465 725.645,615.711 734.933,559.16 744.221,601.559 753.509,516.702 762.796,580.33 772.084,453.016 781.372,548.487 790.66,357.485 799.947,500.722 809.235,214.19 818.523,429.074 827.811,536.516 837.099,590.237 846.386,482.736 855.674,563.347 864.962,402.066 874.25,523.012 883.538,281.062 892.825,462.51 902.113,99.5542 911.401,371.756 920.688,507.857 929.977,575.907 939.264,609.933 948.552,541.823 957.84,592.891 967.127,618.424 976.416,567.298 985.703,605.628 994.991,624.792 1004.28,586.404 1013.57,615.181 1022.85,629.569 1032.14,636.764 1041.43,640.36 1050.72,633.107 1060.01,638.533 1069.29,641.245 1078.58,642.602 1087.87,639.83 1097.16,641.894 1106.44,637.707 1115.73,640.833 1125.02,634.522 1134.31,639.24 1143.6,641.599 1152.88,642.778 1162.17,643.368 1171.46,643.663 1180.75,643.014 1190.03,643.486 1199.32,643.722 1208.61,643.84 1217.9,643.899" fill="none" stroke-linejoin="round"/>
  </g>
  <clipPath id="cp001438723">
   <polygon points="0,723 1438,723 1438,0 0,0"/>
  </clipPath>
  <g clip-path="url(#cp001438723)">
   <polygon shape-rendering="crispEdges" points="1245.44,80.2871 1293.48,80.2871 1293.48,62.2764 1245.44,62.2764" fill="#ffffff"/>
   <polyline stroke-width="0.5" stroke-dasharray="16,0" stroke="#262626" stroke-linecap="square" points="1245.44,80.2871 1293.48,80.2871" fill="none" stroke-linejoin="miter"/>
   <polyline stroke-width="0.5" stroke-dasharray="16,0" stroke="#262626" stroke-linecap="square" points="1245.44,62.2764 1293.48,62.2764" fill="none" stroke-linejoin="miter"/>
   <polyline stroke-width="0.5" stroke-dasharray="16,0" stroke="#262626" stroke-linecap="square" points="1245.44,80.2871 1245.44,62.2764" fill="none" stroke-linejoin="miter"/>
   <polyline stroke-width="0.5" stroke-dasharray="16,0" stroke="#262626" stroke-linecap="square" points="1293.48,80.2871 1293.48,62.2764" fill="none" stroke-linejoin="miter"/>
   <polyline stroke-width="0.5" stroke="#000000" stroke-linecap="butt" points="1249.44,71.2817 1269.47,71.2817" fill="none" stroke-linejoin="round"/>
   <g font-style="normal" font-weight="normal" font-family="FreeSans" font-size="9" xml:space="preserve" transform="translate(1273.47,76.2819) rotate(-0,-0,-5)">
    <text y="-2" x="0 5 8 13 " fill="rgb(0,0,0)">a(n)</text>
   </g>
  </g>
 </g>
</svg>
